<svg width="72" height="72" viewBox="0 0 72 72" fill="none" xmlns="http://www.w3.org/2000/svg">
<g clip-path="url(#clip0_20_20219)">
<path d="M32.6667 40.1667L36 43.5M36 43.5L39.3333 40.1667M36 43.5V36M43.4 41.075C44.1245 40.5655 44.6678 39.8385 44.9511 38.9993C45.2343 38.1601 45.2428 37.2525 44.9753 36.4082C44.7078 35.5639 44.1782 34.8267 43.4634 34.3038C42.7486 33.7809 41.8857 33.4993 41 33.5H39.95C39.6994 32.5232 39.2304 31.616 38.5784 30.8467C37.9265 30.0774 37.1085 29.4661 36.186 29.0586C35.2636 28.6512 34.2607 28.4584 33.2529 28.4946C32.2452 28.5308 31.2588 28.7952 30.368 29.2679C29.4772 29.7405 28.7052 30.409 28.1102 31.2232C27.5151 32.0373 27.1125 32.9759 26.9327 33.9681C26.7529 34.9604 26.8005 35.9805 27.072 36.9517C27.3435 37.9229 27.8317 38.8198 28.5 39.575" stroke="#667085" stroke-width="1.66667" stroke-linecap="round" stroke-linejoin="round"/>
</g>
<defs>
<clipPath id="clip0_20_20219">
<rect width="20" height="20" fill="white" transform="translate(26 26)"/>
</clipPath>
</defs>
</svg>
